<svg xmlns="http://www.w3.org/2000/svg" viewBox="0 0 64 64" width="64" height="64">
  <!-- Rounded orange background -->
  <circle cx="32" cy="32" r="32" fill="#F7931A"/>

  <!-- Bitcoin "B" symbol -->
  <path fill="#FFFFFF" d="
    M46.1 28.7c0.6-4.1-2.5-6.3-6.8-7.8l1.4-5.6-3.4-0.8-1.4 5.4c-0.9-0.2-1.8-0.4-2.7-0.7l1.4-5.5-3.4-0.8-1.4 5.6c-0.7-0.2-1.5-0.4-2.2-0.5l0-0.1-4.7-1.2-0.9 3.6s2.5 0.6 2.5 0.6c1.4 0.3 1.6 1.3 1.6 2l-1.6 6.4c0.1 0 0.2 0.1 0.3 0.1-0.1 0-0.2-0.1-0.3-0.1l-2.2 9c-0.2 0.4-0.6 1.1-1.6 0.8 0 0.1-2.5-0.6-2.5-0.6l-1.7 3.9 4.4 1.1c0.8 0.2 1.6 0.4 2.4 0.6l-1.4 5.7 3.4 0.8 1.4-5.6c0.9 0.3 1.8 0.5 2.7 0.7l-1.4 5.6 3.4 0.8 1.4-5.7c5.8 1.1 10.2 0.7 12-4.6 1.5-4.2-0.1-6.7-3.1-8.3 2.2-0.5 3.9-2 4.3-5z
    M39.6 38.2c-1.1 4.2-8.2 1.9-10.5 1.4l1.9-7.5c2.3 0.6 9.7 1.7 8.6 6.1z
    M40.7 28.6c-1 3.8-6.9 1.9-8.8 1.4l1.7-6.8c1.9 0.5 8.1 1.4 7.1 5.4z
  "/>
</svg>
